<svg t="1622613748217" class="icon" viewBox="0 0 1024 1024" version="1.1" xmlns="http://www.w3.org/2000/svg" p-id="9828" width="128" height="128"><path d="M645.12 696.32h307.2v61.44h-307.2z" fill="#FFFFFF" p-id="9829"></path><path d="M768 583.68h61.44v286.72h-61.44z" fill="#FFFFFF" p-id="9830"></path><path d="M440.32 450.56c-16.384 0-30.72-14.336-30.72-30.72s14.336-30.72 30.72-30.72 30.72 14.336 30.72 30.72-14.336 30.72-30.72 30.72z m163.84 0c-16.384 0-30.72-14.336-30.72-30.72s14.336-30.72 30.72-30.72 30.72 14.336 30.72 30.72-14.336 30.72-30.72 30.72zM450.56 552.96c0-12.288 10.24-20.48 24.576-20.48 12.288 0 24.576 8.192 24.576 20.48s10.24 20.48 24.576 20.48 24.576-8.192 24.576-20.48 10.24-20.48 24.576-20.48c12.288 0 24.576 8.192 24.576 20.48 0 34.816-32.768 61.44-71.68 61.44S450.56 587.776 450.56 552.96z" fill="#FFFFFF" p-id="9831"></path><path d="M276.48 522.24m-71.68 0a71.68 71.68 0 1 0 143.36 0 71.68 71.68 0 1 0-143.36 0Z" fill="#FFFFFF" p-id="9832"></path><path d="M747.52 522.24m-71.68 0a71.68 71.68 0 1 0 143.36 0 71.68 71.68 0 1 0-143.36 0Z" fill="#FFFFFF" p-id="9833"></path><path d="M575.488 839.68H225.28c-67.584 0-122.88-55.296-122.88-122.88V286.72c0-67.584 55.296-122.88 122.88-122.88h573.44c67.584 0 122.88 55.296 122.88 122.88v227.328h-61.44V286.72c0-34.816-26.624-61.44-61.44-61.44H225.28c-34.816 0-61.44 26.624-61.44 61.44v430.08c0 34.816 26.624 61.44 61.44 61.44h350.208v61.44z" fill="#FFFFFF" p-id="9834"></path></svg>