<svg t="1622613635410" class="icon" viewBox="0 0 1024 1024" version="1.1" xmlns="http://www.w3.org/2000/svg" p-id="6882" width="128" height="128"><path d="M504.1152 180.1216c-193.9456 0-351.744 157.7984-351.744 351.744v225.536c0 41.5232 33.792 75.264 75.264 75.264h31.3856c41.5232 0 75.264-33.792 75.264-75.264v-149.0432c0-41.5232-33.792-75.264-75.264-75.264h-31.3856c-8.448 0-16.4864 1.4336-24.064 4.0448v-5.2224c0-165.7344 134.8096-300.544 300.544-300.544s300.544 134.8096 300.544 300.544v5.2224c-7.5776-2.56-15.6672-4.0448-24.064-4.0448h-31.3856c-41.5232 0-75.264 33.792-75.264 75.264v149.0432c0 41.5232 33.792 75.264 75.264 75.264h31.3856c41.5232 0 75.264-33.792 75.264-75.264v-225.536c0-193.9456-157.7984-351.744-351.744-351.744z m-276.48 404.1728h31.3856c13.2608 0 24.064 10.8032 24.064 24.064v149.0432c0 13.2608-10.8032 24.064-24.064 24.064h-31.3856c-13.2608 0-24.064-10.8032-24.064-24.064v-149.0432c0-13.2608 10.8032-24.064 24.064-24.064z m577.024 173.1072c0 13.2608-10.8032 24.064-24.064 24.064h-31.3856c-13.2608 0-24.064-10.8032-24.064-24.064v-149.0432c0-13.2608 10.8032-24.064 24.064-24.064h31.3856c13.2608 0 24.064 10.8032 24.064 24.064v149.0432z" fill="#FFFFFF" p-id="6883"></path></svg>